<svg width="82" height="152" viewBox="0 0 82 152" fill="none" xmlns="http://www.w3.org/2000/svg">
<g id="lights">
<rect id="Rectangle 9" x="8.36377" y="8" width="67.24" height="141.094" rx="25" fill="#D9D9D9"/>
<path id="Rectangle 10" d="M8 33C8 19.1929 19.1929 8 33 8H51C64.8071 8 76 19.1929 76 33V43H8V33Z" fill="#B81C17"/>
<path id="Rectangle 11" d="M8 113H76V124C76 137.807 64.8071 149 51 149H33C19.1929 149 8 137.807 8 124V113Z" fill="#B81C17"/>
<rect id="Rectangle 12" x="8" y="43" width="5" height="70" fill="#B81C17"/>
<g id="Vector 2" filter="url(#filter0_f_112_60)">
<path d="M13 85L72 85" stroke="black"/>
</g>
<rect id="Rectangle 14" x="13" y="113" width="23" height="59" transform="rotate(-90 13 113)" fill="url(#paint0_linear_112_60)"/>
<rect id="Rectangle 13" x="71" y="43" width="5" height="70" fill="#B81C17"/>
<g id="Vector 3" filter="url(#filter1_f_112_60)">
<path d="M56.9632 9.10229H28.0737C16.5179 9.10229 11.827 22.0003 10.3749 28.4493C9.30494 58.9971 8.72409 122.333 11.292 131.294C13.86 140.254 22.8767 146.228 28.0737 148.095C36.4807 149.622 54.9456 149.724 61.5489 146.058C68.1522 142.393 71.7578 133.67 73.2864 127.73C74.2035 101.255 75.4875 42.7049 73.2864 28.4493C71.0853 14.1936 61.8546 9.61143 56.9632 9.10229Z" stroke="black"/>
</g>
<g id="break-remove">
<g id="Ellipse 11" filter="url(#filter2_f_112_60)">
<ellipse cx="41.9838" cy="122.088" rx="7.16492" ry="8.26721" fill="#594640"/>
</g>
<g id="Vector 4" filter="url(#filter3_f_112_60)">
<path d="M27.103 136.417H59.6207" stroke="white" stroke-width="6"/>
</g>
</g>
<g id="Ellipse 12" filter="url(#filter4_f_112_60)">
<ellipse cx="20.7652" cy="19.3766" rx="15.0079" ry="2.09803" transform="rotate(-40.5659 20.7652 19.3766)" fill="black"/>
</g>
<g id="Ellipse 13" filter="url(#filter5_f_112_60)">
<ellipse cx="62.0274" cy="21.5033" rx="15.0079" ry="2.09803" transform="rotate(-133.039 62.0274 21.5033)" fill="black"/>
</g>
<g id="indicator-remove">
<g id="Ellipse 9" filter="url(#filter6_f_112_60)">
<ellipse cx="41.9838" cy="59.2565" rx="7.16492" ry="8.26721" fill="#594640"/>
</g>
<g id="Vector 5" filter="url(#filter7_f_112_60)">
<path d="M37.7622 54.2964L26.7393 59.8079" stroke="#594640" stroke-width="3"/>
</g>
<g id="Vector 6" filter="url(#filter8_f_112_60)">
<path d="M57.3955 58.6604L45.8421 53.5591" stroke="#594640" stroke-width="3"/>
</g>
</g>
</g>
<defs>
<filter id="filter0_f_112_60" x="10" y="81.5" width="65" height="7" filterUnits="userSpaceOnUse" color-interpolation-filters="sRGB">
<feFlood flood-opacity="0" result="BackgroundImageFix"/>
<feBlend mode="normal" in="SourceGraphic" in2="BackgroundImageFix" result="shape"/>
<feGaussianBlur stdDeviation="1.5" result="effect1_foregroundBlur_112_60"/>
</filter>
<filter id="filter1_f_112_60" x="6.96631" y="6.60229" width="70.0356" height="144.991" filterUnits="userSpaceOnUse" color-interpolation-filters="sRGB">
<feFlood flood-opacity="0" result="BackgroundImageFix"/>
<feBlend mode="normal" in="SourceGraphic" in2="BackgroundImageFix" result="shape"/>
<feGaussianBlur stdDeviation="1" result="effect1_foregroundBlur_112_60"/>
</filter>
<filter id="filter2_f_112_60" x="30.8188" y="109.82" width="22.3296" height="24.5342" filterUnits="userSpaceOnUse" color-interpolation-filters="sRGB">
<feFlood flood-opacity="0" result="BackgroundImageFix"/>
<feBlend mode="normal" in="SourceGraphic" in2="BackgroundImageFix" result="shape"/>
<feGaussianBlur stdDeviation="2" result="effect1_foregroundBlur_112_60"/>
</filter>
<filter id="filter3_f_112_60" x="19.103" y="125.417" width="48.5176" height="22" filterUnits="userSpaceOnUse" color-interpolation-filters="sRGB">
<feFlood flood-opacity="0" result="BackgroundImageFix"/>
<feBlend mode="normal" in="SourceGraphic" in2="BackgroundImageFix" result="shape"/>
<feGaussianBlur stdDeviation="4" result="effect1_foregroundBlur_112_60"/>
</filter>
<filter id="filter4_f_112_60" x="0.281738" y="0.48584" width="40.9668" height="37.7815" filterUnits="userSpaceOnUse" color-interpolation-filters="sRGB">
<feFlood flood-opacity="0" result="BackgroundImageFix"/>
<feBlend mode="normal" in="SourceGraphic" in2="BackgroundImageFix" result="shape"/>
<feGaussianBlur stdDeviation="4.5" result="effect1_foregroundBlur_112_60"/>
</filter>
<filter id="filter5_f_112_60" x="42.6689" y="1.43994" width="38.7168" height="40.1267" filterUnits="userSpaceOnUse" color-interpolation-filters="sRGB">
<feFlood flood-opacity="0" result="BackgroundImageFix"/>
<feBlend mode="normal" in="SourceGraphic" in2="BackgroundImageFix" result="shape"/>
<feGaussianBlur stdDeviation="4.5" result="effect1_foregroundBlur_112_60"/>
</filter>
<filter id="filter6_f_112_60" x="29.8188" y="45.9893" width="24.3296" height="26.5342" filterUnits="userSpaceOnUse" color-interpolation-filters="sRGB">
<feFlood flood-opacity="0" result="BackgroundImageFix"/>
<feBlend mode="normal" in="SourceGraphic" in2="BackgroundImageFix" result="shape"/>
<feGaussianBlur stdDeviation="2.5" result="effect1_foregroundBlur_112_60"/>
</filter>
<filter id="filter7_f_112_60" x="22.0684" y="48.9546" width="20.3647" height="16.1948" filterUnits="userSpaceOnUse" color-interpolation-filters="sRGB">
<feFlood flood-opacity="0" result="BackgroundImageFix"/>
<feBlend mode="normal" in="SourceGraphic" in2="BackgroundImageFix" result="shape"/>
<feGaussianBlur stdDeviation="2" result="effect1_foregroundBlur_112_60"/>
</filter>
<filter id="filter8_f_112_60" x="41.2363" y="48.187" width="20.7651" height="15.8457" filterUnits="userSpaceOnUse" color-interpolation-filters="sRGB">
<feFlood flood-opacity="0" result="BackgroundImageFix"/>
<feBlend mode="normal" in="SourceGraphic" in2="BackgroundImageFix" result="shape"/>
<feGaussianBlur stdDeviation="2" result="effect1_foregroundBlur_112_60"/>
</filter>
<linearGradient id="paint0_linear_112_60" x1="13" y1="142.5" x2="36" y2="142.5" gradientUnits="userSpaceOnUse">
<stop stop-color="#A7A7A7"/>
<stop offset="0.0001" stop-color="#555555"/>
<stop offset="1" stop-color="#D9D9D9"/>
</linearGradient>
</defs>
</svg>
