<svg width="328" height="333" viewBox="0 0 328 333" fill="none" xmlns="http://www.w3.org/2000/svg">
<g id="light-lights">
<g id="indicator-light">
<g id="light-bulb">
<g id="Ellipse 9" filter="url(#filter0_f_110_59)">
<ellipse cx="162.245" cy="131.267" rx="7.16492" ry="8.26721" fill="#FFC671"/>
</g>
<g id="Vector 5" filter="url(#filter1_f_110_59)">
<path d="M158.023 126.307L147 131.818" stroke="#FFC671" stroke-width="3"/>
</g>
<g id="Vector 6" filter="url(#filter2_f_110_59)">
<path d="M177.656 130.671L166.103 125.57" stroke="#FFC671" stroke-width="3"/>
</g>
</g>
<g id="Ellipse 23" filter="url(#filter3_f_110_59)">
<path d="M234 127C234 145.225 202.66 160 164 160C125.34 160 94 145.225 94 127C94 108.775 125.34 94 164 94C202.66 94 234 108.775 234 127Z" fill="#FAFF73"/>
</g>
<g id="Vector 40" filter="url(#filter4_f_110_59)">
<path d="M193 114H135V151H193V114Z" stroke="#FFCD82" stroke-width="15"/>
</g>
</g>
<g id="break-light">
<g id="Vector 4" filter="url(#filter5_f_110_59)">
<path d="M148 209H180.518" stroke="#390000" stroke-width="6"/>
</g>
<g id="Ellipse 11" filter="url(#filter6_f_110_59)">
<ellipse cx="162.164" cy="192.267" rx="7.16492" ry="8.26721" fill="#FF0000"/>
<path d="M168.829 192.267C168.829 196.626 165.781 200.034 162.164 200.034C158.548 200.034 155.5 196.626 155.5 192.267C155.5 187.908 158.548 184.5 162.164 184.5C165.781 184.5 168.829 187.908 168.829 192.267Z" stroke="black"/>
</g>
<g id="Ellipse 22" filter="url(#filter7_f_110_59)">
<ellipse cx="164" cy="202" rx="70" ry="37" fill="#FF4A28"/>
</g>
<g id="Vector 41" filter="url(#filter8_f_110_59)">
<path d="M195 184H132L131 199.5L136.5 212L146 220L181 219.5L190 212L194 199.5L195 184Z" stroke="#FF8282" stroke-opacity="0.69" stroke-width="15"/>
</g>
</g>
</g>
<defs>
<filter id="filter0_f_110_59" x="150.08" y="118" width="24.3296" height="26.5342" filterUnits="userSpaceOnUse" color-interpolation-filters="sRGB">
<feFlood flood-opacity="0" result="BackgroundImageFix"/>
<feBlend mode="normal" in="SourceGraphic" in2="BackgroundImageFix" result="shape"/>
<feGaussianBlur stdDeviation="2.5" result="effect1_foregroundBlur_110_59"/>
</filter>
<filter id="filter1_f_110_59" x="142.329" y="120.965" width="20.3647" height="16.1948" filterUnits="userSpaceOnUse" color-interpolation-filters="sRGB">
<feFlood flood-opacity="0" result="BackgroundImageFix"/>
<feBlend mode="normal" in="SourceGraphic" in2="BackgroundImageFix" result="shape"/>
<feGaussianBlur stdDeviation="2" result="effect1_foregroundBlur_110_59"/>
</filter>
<filter id="filter2_f_110_59" x="161.497" y="120.198" width="20.7651" height="15.8457" filterUnits="userSpaceOnUse" color-interpolation-filters="sRGB">
<feFlood flood-opacity="0" result="BackgroundImageFix"/>
<feBlend mode="normal" in="SourceGraphic" in2="BackgroundImageFix" result="shape"/>
<feGaussianBlur stdDeviation="2" result="effect1_foregroundBlur_110_59"/>
</filter>
<filter id="filter3_f_110_59" x="0.400002" y="0.400002" width="327.2" height="253.2" filterUnits="userSpaceOnUse" color-interpolation-filters="sRGB">
<feFlood flood-opacity="0" result="BackgroundImageFix"/>
<feBlend mode="normal" in="SourceGraphic" in2="BackgroundImageFix" result="shape"/>
<feGaussianBlur stdDeviation="46.8" result="effect1_foregroundBlur_110_59"/>
</filter>
<filter id="filter4_f_110_59" x="112.8" y="91.8" width="102.4" height="81.4" filterUnits="userSpaceOnUse" color-interpolation-filters="sRGB">
<feFlood flood-opacity="0" result="BackgroundImageFix"/>
<feBlend mode="normal" in="SourceGraphic" in2="BackgroundImageFix" result="shape"/>
<feGaussianBlur stdDeviation="7.35" result="effect1_foregroundBlur_110_59"/>
</filter>
<filter id="filter5_f_110_59" x="140" y="198" width="48.5176" height="22" filterUnits="userSpaceOnUse" color-interpolation-filters="sRGB">
<feFlood flood-opacity="0" result="BackgroundImageFix"/>
<feBlend mode="normal" in="SourceGraphic" in2="BackgroundImageFix" result="shape"/>
<feGaussianBlur stdDeviation="4" result="effect1_foregroundBlur_110_59"/>
</filter>
<filter id="filter6_f_110_59" x="151" y="180" width="22.3296" height="24.5342" filterUnits="userSpaceOnUse" color-interpolation-filters="sRGB">
<feFlood flood-opacity="0" result="BackgroundImageFix"/>
<feBlend mode="normal" in="SourceGraphic" in2="BackgroundImageFix" result="shape"/>
<feGaussianBlur stdDeviation="2" result="effect1_foregroundBlur_110_59"/>
</filter>
<filter id="filter7_f_110_59" x="0.399513" y="71.4" width="327.2" height="261.2" filterUnits="userSpaceOnUse" color-interpolation-filters="sRGB">
<feFlood flood-opacity="0" result="BackgroundImageFix"/>
<feBlend mode="normal" in="SourceGraphic" in2="BackgroundImageFix" result="shape"/>
<feGaussianBlur stdDeviation="46.8" result="effect1_foregroundBlur_110_59"/>
</filter>
<filter id="filter8_f_110_59" x="102.297" y="155.4" width="121.802" height="93.2391" filterUnits="userSpaceOnUse" color-interpolation-filters="sRGB">
<feFlood flood-opacity="0" result="BackgroundImageFix"/>
<feBlend mode="normal" in="SourceGraphic" in2="BackgroundImageFix" result="shape"/>
<feGaussianBlur stdDeviation="10.55" result="effect1_foregroundBlur_110_59"/>
</filter>
</defs>
</svg>
